<?xml version="1.0" encoding="UTF-8"?>
<!DOCTYPE svg PUBLIC "-//W3C//DTD SVG 1.1//EN" "http://www.w3.org/Graphics/SVG/1.1/DTD/svg11.dtd">
<!-- Creator: CorelDRAW 2021 (64 Bit) -->
<svg xmlns="http://www.w3.org/2000/svg" xml:space="preserve" width="120.508mm" height="63.5964mm" version="1.1" style="shape-rendering:geometricPrecision; text-rendering:geometricPrecision; image-rendering:optimizeQuality; fill-rule:evenodd; clip-rule:evenodd"
viewBox="0 0 15244 8044.83"
 xmlns:xlink="http://www.w3.org/1999/xlink"
 xmlns:xodm="http://www.corel.com/coreldraw/odm/2003">
 <defs>
  <style type="text/css">
   <![CDATA[
    .fil2 {fill:#33CC33}
    .fil1 {fill:#FF6600}
    .fil0 {fill:#FF6600;fill-rule:nonzero}
   ]]>
  </style>
 </defs>
 <g id="Camada_x0020_1">
  <metadata id="CorelCorpID_0Corel-Layer"/>
  <g id="_2085089526640">
   <path class="fil0" d="M2711.94 2547.84c-86.36,0 -159.99,30.07 -220.21,90.31 -60.19,61.76 -90.29,135.43 -90.29,220.17 0,121.2 57.04,211.47 171.89,271.67 34.84,18.99 168.69,58.62 400.76,120.4 173.48,49.9 300.19,113.24 381,190.89 114.05,107.71 171.86,265.32 171.86,470.47 0,204.33 -72.09,379.38 -216.21,525.11 -144.95,143.36 -320.03,215.44 -524.37,215.44l-605.89 0c-57.05,0 -106.16,-20.59 -148.13,-62.57 -41.97,-40.42 -62.57,-89.48 -62.57,-148.91l0 -3.96c0,-59.39 20.59,-109.31 62.57,-151.27 41.97,-41.97 91.08,-62.57 148.13,-62.57l628.86 0c87.16,0 160.79,-30.12 221,-90.28 60.19,-60.23 90.29,-133.9 90.29,-220.99 0,-114.06 -57.05,-199.59 -171.9,-255.05 -26.13,-11.87 -159.99,-52.26 -401.54,-120.36 -171.1,-51.51 -298.61,-116.45 -380.2,-194.88 -114.85,-113.24 -171.86,-274.03 -171.86,-483.13 0,-203.55 72.08,-377.8 215.41,-521.94 145.75,-144.98 320.77,-217.86 525.16,-217.86l426.91 0c58.59,0 108.5,20.61 150.47,62.62 42.01,41.96 62.6,91.88 62.6,150.47l0 4.77c0,58.59 -20.59,108.48 -62.6,148.86 -41.97,41.24 -91.88,62.6 -150.47,62.6l-450.66 0zm1419.33 -216.24c0,-58.59 -20.59,-108.51 -62.55,-150.47 -41.97,-42.01 -91.09,-62.62 -148.93,-62.62l-6.31 0c-57.83,0 -106.94,20.61 -148.91,62.62 -41.97,41.96 -62.57,91.88 -62.57,150.47l0 1269.66c0,289.07 102.94,536.98 308.88,742.1 205.15,205.94 453.85,308.92 744.52,308.92 289.09,0 537.04,-102.98 742.96,-308.92 205.14,-205.12 308.09,-453.03 308.09,-742.1l0 -1269.66c0,-58.59 -20.59,-108.51 -62.57,-150.47 -40.38,-42.01 -89.5,-62.62 -148.13,-62.62l-4.72 0c-58.63,0 -109.33,20.61 -151.3,62.62 -41.18,41.96 -62.57,91.88 -62.57,150.47l0 1269.66c0,171.86 -60.18,318.4 -180.58,440.39 -122.78,121.15 -269.29,181.36 -441.19,181.36 -173.44,0 -320.77,-60.21 -442.76,-181.36 -121.16,-121.99 -181.37,-268.53 -181.37,-440.39l0 -1269.66zm3210.99 1886.66c232.07,0 429.28,-81.6 591.66,-245.52 163.95,-163.95 245.52,-361.19 245.52,-591.68 0,-232.09 -81.57,-430.08 -245.52,-594.02 -162.37,-163.18 -359.58,-243.95 -591.66,-243.95 -232.07,0 -430.11,80.77 -594.04,243.95 -162.37,163.94 -243.98,361.94 -243.98,594.02 0,230.49 81.6,427.73 243.98,591.68 163.93,163.92 361.96,245.52 594.04,245.52zm-1055.8 1387.63c-57.83,0 -106.94,-20.59 -148.91,-62.55 -41.97,-41.97 -62.57,-91.09 -62.57,-148.09l0 -2014.19c1.58,-350.06 125.92,-647.87 373.85,-893.43 245.53,-246.3 543.33,-369.11 893.43,-369.11 349.26,0 647.86,123.59 895.01,371.49 247.91,247.1 371.47,545.73 371.47,895.02 0,350.08 -123.56,648.68 -371.47,895.78 -247.15,247.91 -545.75,371.47 -895.01,371.47 -320.77,0 -599.59,-106.12 -838.01,-317.6l0 1060.56c0,57 -20.58,106.12 -62.55,148.09 -41.97,41.96 -91.09,62.55 -148.93,62.55l-6.31 0zm3718.67 -3053.34c259.76,0 472.84,99.83 639.98,299.41l-1468.47 662.98c-6.34,-39.63 -9.51,-80.81 -9.51,-122.78 0,-232.09 81.6,-430.08 243.98,-594.04 163.92,-163.95 361.95,-245.57 594.02,-245.57zm1150.85 305.76c-100.6,-220.98 -253.45,-399.16 -459.39,-533.86 -209.1,-137.02 -439.59,-205.94 -691.46,-205.94 -350.1,0 -648.7,123.59 -895.81,371.49 -247.9,247.1 -371.47,545.73 -371.47,895.02 0,350.08 123.58,648.68 371.47,895.78 247.11,247.91 545.71,371.47 895.81,371.47 271.67,0 518.78,-80.02 739.79,-239.22 216.99,-154.42 368.26,-357.18 455.42,-607.47 24.55,-69.7 15.82,-133.84 -26.15,-193.26 -42.76,-60.19 -101.39,-90.28 -173.48,-90.28 -102.15,0 -170.27,48.31 -204.33,144.14 -57.81,165.55 -157.62,300.19 -299.4,403.93 -147.31,106.16 -311.26,159.99 -491.85,159.99 -272.45,0 -491.88,-106.93 -659,-320.79 129.91,-58.58 413.45,-186.88 851.46,-384.91 352.47,-159.2 637.63,-287.49 853.82,-384.93 53.88,-24.57 91.09,-64.15 111.67,-118.82 19.8,-55.46 17.46,-109.28 -7.1,-162.36zm1233.19 -739.8c-264.51,0 -489.45,92.69 -674.79,278.03 -182.95,186.14 -275.63,411.07 -278.8,675.63l0 1368.63c0,59.43 20.59,108.5 62.57,148.91 41.97,41.97 91.08,62.57 148.91,62.57l6.31 0c57.85,0 106.95,-20.59 148.93,-62.57 41.97,-40.42 62.57,-89.48 62.57,-148.91l0 -1368.63c1.58,-145.75 52.28,-269.29 152.89,-371.49 102.16,-102.17 225.72,-152.85 371.42,-152.85l132.3 0c58.59,0 109.29,-21.37 150.47,-62.6 40.39,-40.38 60.97,-90.27 60.97,-148.86l0 -4.77c0,-58.59 -20.58,-108.51 -60.97,-150.47 -41.18,-42.01 -91.88,-62.62 -150.47,-62.62l-132.3 0z"/>
   <path class="fil1" d="M8193.78 5653.9c-54.13,-45.13 -113.43,-79.28 -177.88,-101.83 -66.36,-22.55 -137.26,-34.15 -211.37,-34.15 -138.55,0 -255.21,45.11 -351.23,134.05 -96.66,89.59 -144.99,200.41 -144.99,332.53 0,103.11 20.62,195.91 61.87,277.76 40.59,81.83 100.53,146.27 179.8,193.97 76.67,49.61 164.98,74.1 266.15,74.1 148.22,0 275.16,-47.69 381.51,-141.78l329.95 418.9c-47.68,50.27 -114.7,95.39 -199.77,134.05 -87.01,39.3 -176.57,68.31 -268.1,86.99 -92.14,18.68 -177.22,28.36 -255.18,28.36 -219.12,0 -412.46,-45.75 -579.36,-137.92 -167.56,-92.8 -295.79,-215.25 -385.39,-366.06 -89.56,-153.35 -134.04,-317.71 -134.04,-492.98 0,-159.82 27.07,-304.84 81.2,-434.36 55.42,-132.13 131.47,-245.53 228.14,-339.62 96.02,-92.17 212.67,-164.33 349.3,-217.17 135.97,-51.56 282.9,-77.34 440.15,-77.34 128.23,0 253.89,19.97 375.7,60.59 123.74,41.24 232.01,99.88 326.74,175.26l-313.2 426.64zm3130.53 1778.53l0 315.08c0,80.64 -30.68,152.53 -87.73,209.53 -57.25,57.24 -129.14,87.79 -210.18,87.79l-4.98 0c-81.03,0 -152.94,-30.55 -210.18,-87.79 -57.05,-57 -87.73,-128.89 -87.73,-209.53l0 -1.75 -3.52 0 0 -1727.1c1.29,-192.69 52.21,-366.05 152.73,-519.44 101.19,-157.22 236.51,-280.99 407.93,-369.89 171.42,-90.88 353.16,-135.99 545.84,-135.99 146.95,0 286.78,25.78 418.9,77.33 130.81,47.68 250.04,119.87 357,217.18 105.69,96.67 187.55,207.52 245.53,332.53 58.01,124.39 87.02,261.65 87.02,411.16 0,146.31 -29.66,282.9 -88.94,409.87 -58.01,125.65 -139.21,235.87 -243.61,330.59 -104.4,95.39 -223.62,167.57 -357,217.17 -134.68,48.98 -274.53,73.5 -418.9,73.5 -142.41,0 -281.62,-24.52 -417.6,-73.5l-43.16 -19.3 -43.19 -18.71 0 481.27 1.75 0zm2811.23 -365.92c-192.68,0 -374.41,-45.75 -545.84,-135.97 -171.42,-90.85 -306.75,-214.6 -407.93,-371.84 -101.83,-159.17 -152.73,-336.4 -152.73,-532.96 0,-146.91 29.64,-284.18 88.94,-411.14 59.28,-127.61 140.49,-237.16 243.61,-330.62 104.4,-94.09 222.97,-166.9 356.36,-217.18 135.97,-50.26 275.18,-75.38 417.6,-75.38 143.07,0 282.93,25.12 418.91,75.38 132.1,47.72 251.33,119.87 357.02,215.26 104.4,96.02 185.59,206.23 243.6,332.54 59.28,126.97 88.94,264.23 88.94,411.14 0,150.15 -29.01,287.44 -87.02,411.8 -57.99,125.68 -139.84,237.15 -245.52,334.46 -106.98,95.39 -226.2,167.57 -357.02,217.17 -132.11,51.56 -271.96,77.34 -418.91,77.34zm-503.94 -1040.78c0,134.7 50.27,250.69 150.8,347.36 99.25,97.32 217.18,145.65 353.14,145.65 137.29,0 255.21,-48.33 355.09,-145.65 100.54,-96.67 150.81,-212.67 150.81,-347.36 0,-87.64 -23.2,-168.84 -69.59,-243.6 -47.07,-74.12 -108.91,-133.4 -186.91,-177.21 -77.33,-43.82 -160.46,-65.75 -249.4,-65.75 -86.99,0 -169.48,21.93 -247.47,65.75 -77.96,43.81 -140.46,103.1 -186.88,177.21 -46.39,74.76 -69.6,155.96 -69.6,243.6zm-2309.03 5.81c0,-134.68 50.27,-250.69 150.79,-347.34 99.25,-96.7 217.2,-145.03 353.16,-145.03 137.29,0 255.21,48.33 355.09,145.03 100.53,97.93 150.8,213.93 150.8,347.34 0,88.28 -23.21,168.84 -69.6,241.66 -47.04,74.12 -108.9,133.4 -186.89,177.87 -78.62,43.82 -161.1,65.75 -249.4,65.75 -88.28,0 -170.76,-21.93 -247.47,-65.75 -77.96,-44.46 -140.48,-103.75 -186.88,-177.87 -46.4,-71.53 -69.6,-152.09 -69.6,-241.66zm-1805.1 1034.97c-192.68,0 -374.42,-45.75 -545.84,-135.97 -171.42,-90.85 -306.75,-214.6 -407.93,-371.84 -101.83,-159.17 -152.73,-336.4 -152.73,-532.96 0,-146.91 29.64,-284.18 88.94,-411.14 59.28,-127.61 140.49,-237.16 243.6,-330.62 104.4,-94.09 222.98,-166.9 356.36,-217.18 135.99,-50.26 275.2,-75.38 417.61,-75.38 143.07,0 282.93,25.12 418.9,75.38 132.1,47.72 251.33,119.87 357.02,215.26 104.4,96.02 185.6,206.23 243.61,332.54 59.28,126.97 88.94,264.23 88.94,411.14 0,150.15 -29.01,287.44 -87.02,411.8 -58,125.68 -139.84,237.15 -245.53,334.46 -106.97,95.39 -226.2,167.57 -357.02,217.17 -132.11,51.56 -271.96,77.34 -418.9,77.34zm-503.94 -1040.78c0,134.7 50.27,250.69 150.79,347.36 99.25,97.32 217.2,145.65 353.16,145.65 137.28,0 255.21,-48.33 355.09,-145.65 100.54,-96.67 150.81,-212.67 150.81,-347.36 0,-87.64 -23.21,-168.84 -69.6,-243.6 -47.06,-74.12 -108.91,-133.4 -186.9,-177.21 -77.33,-43.82 -160.48,-65.75 -249.4,-65.75 -87.01,0 -169.48,21.93 -247.47,65.75 -77.97,43.81 -140.48,103.1 -186.89,177.21 -46.39,74.76 -69.59,155.96 -69.59,243.6z"/>
   <path class="fil2" d="M466.8 1552.13c719.95,-1187.27 2085.65,-1743.99 3374.43,-1492.91 -1181.19,-141.36 -2391.27,400.72 -3047.76,1483.3 -894.46,1475.06 -422.55,3394.93 1054.01,4288.17 1083.72,655.61 2407.44,575.95 3388.72,-96.02 -1025.75,819.01 -2494.19,957.7 -3682.68,238.74 -1522.41,-921 -2008.94,-2900.48 -1086.72,-4421.29z"/>
   <path class="fil2" d="M609.53 3652.29c229.42,1240.29 1210.8,2152.14 2387.03,2352.68 -1049.45,-259.26 -1903.28,-1108.64 -2112.48,-2239.61 -285.03,-1540.96 734.55,-3021.13 2277.27,-3306.04 1132.26,-209.13 2231.65,283.76 2849.19,1170.07 -607.95,-1025.56 -1811.34,-1615.12 -3053.06,-1385.77 -1590.61,293.77 -2641.83,1819.88 -2347.96,3408.68z"/>
  </g>
 </g>
</svg>
