<svg width="456" height="241" viewBox="0 0 456 241" fill="none" xmlns="http://www.w3.org/2000/svg">
<g clip-path="url(#clip0_3161_5659)">
<path d="M81.0288 76.1244C78.4486 76.1244 76.2486 77.0229 74.4494 78.8227C72.651 80.668 71.7517 82.8691 71.7517 85.401C71.7517 89.0222 73.4559 91.7193 76.8874 93.518C77.9284 94.0854 81.9276 95.2694 88.8614 97.1153C94.0446 98.6062 97.8305 100.499 100.245 102.819C103.653 106.037 105.38 110.746 105.38 116.876C105.38 122.981 103.226 128.211 98.9198 132.565C94.589 136.848 89.358 139.002 83.2527 139.002H65.1498C63.4453 139.002 61.9779 138.387 60.724 137.132C59.47 135.925 58.8545 134.459 58.8545 132.683V132.565C58.8545 130.79 59.4697 129.299 60.724 128.045C61.9779 126.791 63.4453 126.176 65.1498 126.176H83.939C86.5431 126.176 88.7431 125.276 90.542 123.478C92.3404 121.679 93.2397 119.478 93.2397 116.876C93.2397 113.468 91.5352 110.912 88.1037 109.255C87.323 108.9 83.3235 107.694 76.1064 105.659C70.9943 104.12 67.1845 102.18 64.7468 99.8363C61.3153 96.4529 59.6119 91.6488 59.6119 85.4013C59.6119 79.3196 61.7655 74.1133 66.0479 69.8067C70.4027 65.475 75.6319 63.2975 81.7387 63.2975H94.494C96.2446 63.2975 97.7358 63.9133 98.9898 65.1684C100.245 66.4221 100.86 67.9136 100.86 69.6642V69.8067C100.86 71.5573 100.245 73.0479 98.9898 74.2544C97.7358 75.4865 96.2446 76.1247 94.494 76.1247H81.0291L81.0288 76.1244ZM123.436 69.6636C123.436 67.913 122.821 66.4215 121.567 65.1678C120.313 63.9127 118.845 63.2969 117.117 63.2969H116.929C115.201 63.2969 113.733 63.9127 112.479 65.1678C111.225 66.4215 110.61 67.913 110.61 69.6636V107.599C110.61 116.236 113.686 123.643 119.839 129.771C125.968 135.924 133.399 139.001 142.084 139.001C150.721 139.001 158.129 135.924 164.282 129.771C170.411 123.643 173.487 116.236 173.487 107.599V69.6636C173.487 67.913 172.872 66.4215 171.617 65.1678C170.411 63.9127 168.943 63.2969 167.192 63.2969H167.051C165.299 63.2969 163.784 63.9127 162.53 65.1678C161.3 66.4215 160.661 67.913 160.661 69.6636V107.599C160.661 112.734 158.863 117.112 155.265 120.757C151.597 124.376 147.219 126.175 142.083 126.175C136.901 126.175 132.499 124.376 128.854 120.757C125.234 117.112 123.435 112.734 123.435 107.599V69.6636H123.436ZM219.374 126.033C226.308 126.033 232.2 123.595 237.052 118.698C241.95 113.799 244.387 107.906 244.387 101.019C244.387 94.0851 241.95 88.1695 237.052 83.2713C232.2 78.3958 226.308 75.9825 219.374 75.9825C212.44 75.9825 206.523 78.3958 201.625 83.2713C196.774 88.1695 194.336 94.0854 194.336 101.019C194.336 107.906 196.774 113.799 201.625 118.698C206.523 123.595 212.44 126.033 219.374 126.033ZM187.829 167.493C186.101 167.493 184.634 166.878 183.38 165.624C182.126 164.37 181.51 162.903 181.51 161.2V101.019C181.557 90.5604 185.272 81.6624 192.68 74.3255C200.016 66.9665 208.914 63.2972 219.374 63.2972C229.809 63.2972 238.731 66.9898 246.115 74.3966C253.522 81.7795 257.214 90.702 257.214 101.138C257.214 111.598 253.522 120.519 246.115 127.902C238.731 135.309 229.809 139.001 219.374 139.001C209.79 139.001 201.459 135.83 194.336 129.512V161.199C194.336 162.902 193.721 164.37 192.467 165.624C191.213 166.878 189.745 167.493 188.017 167.493H187.829V167.493ZM298.936 76.2652C306.697 76.2652 313.063 79.2479 318.057 85.211L274.182 105.02C273.992 103.835 273.898 102.605 273.898 101.351C273.898 94.4167 276.336 88.5012 281.187 83.6023C286.085 78.7038 292.002 76.2652 298.936 76.2652ZM333.321 85.4007C330.315 78.7982 325.748 73.4746 319.595 69.45C313.348 65.3561 306.461 63.2969 298.936 63.2969C288.475 63.2969 279.554 66.9895 272.17 74.3963C264.764 81.7792 261.072 90.7017 261.072 101.138C261.072 111.598 264.764 120.519 272.17 127.902C279.554 135.309 288.475 139.001 298.936 139.001C307.053 139.001 314.436 136.61 321.039 131.853C327.522 127.24 332.042 121.182 334.646 113.703C335.38 111.621 335.119 109.704 333.865 107.929C332.587 106.131 330.836 105.232 328.682 105.232C325.63 105.232 323.594 106.675 322.577 109.538C320.849 114.485 317.867 118.507 313.631 121.607C309.23 124.779 304.331 126.387 298.936 126.387C290.795 126.387 284.239 123.192 279.246 116.803C283.127 115.052 291.599 111.219 304.686 105.302C315.217 100.546 323.737 96.7126 330.196 93.8012C331.806 93.0671 332.918 91.8846 333.533 90.2511C334.125 88.5941 334.055 86.986 333.321 85.4001V85.4007ZM370.166 63.2969C362.263 63.2969 355.542 66.0663 350.005 71.6039C344.539 77.1654 341.769 83.8859 341.675 91.7904V132.683C341.675 134.458 342.29 135.924 343.544 137.132C344.798 138.386 346.265 139.001 347.993 139.001H348.182C349.91 139.001 351.377 138.386 352.632 137.132C353.886 135.924 354.501 134.458 354.501 132.683V91.7904C354.548 87.4357 356.063 83.7446 359.069 80.691C362.122 77.6384 365.813 76.1241 370.166 76.1241H374.119C375.87 76.1241 377.385 75.4857 378.615 74.2538C379.822 73.0473 380.437 71.5567 380.437 69.8061V69.6636C380.437 67.913 379.822 66.4215 378.615 65.1678C377.385 63.9127 375.87 63.2969 374.119 63.2969H370.166H370.166Z" fill="white"/>
<path fill-rule="evenodd" clip-rule="evenodd" d="M244.816 168.927C243.199 167.579 241.427 166.558 239.501 165.885C237.519 165.211 235.4 164.864 233.186 164.864C229.046 164.864 225.561 166.212 222.692 168.869C219.804 171.546 218.36 174.857 218.36 178.805C218.36 181.886 218.976 184.658 220.208 187.104C221.421 189.549 223.212 191.474 225.58 192.899C227.871 194.381 230.51 195.113 233.533 195.113C237.961 195.113 241.754 193.688 244.931 190.877L254.79 203.393C253.365 204.895 251.363 206.243 248.821 207.398C246.221 208.572 243.545 209.439 240.811 209.997C238.058 210.555 235.516 210.845 233.186 210.845C226.639 210.845 220.863 209.478 215.876 206.724C210.87 203.951 207.038 200.293 204.361 195.787C201.685 191.205 200.356 186.294 200.356 181.057C200.356 176.282 201.165 171.949 202.783 168.079C204.438 164.132 206.711 160.743 209.599 157.932C212.468 155.178 215.953 153.022 220.035 151.444C224.098 149.903 228.488 149.133 233.186 149.133C237.017 149.133 240.772 149.729 244.411 150.943C248.109 152.175 251.343 153.927 254.174 156.18L244.816 168.927V168.927ZM338.35 222.066V231.48C338.35 233.89 337.434 236.037 335.729 237.741C334.019 239.451 331.871 240.364 329.449 240.364H329.301C326.879 240.364 324.731 239.451 323.021 237.741C321.316 236.037 320.4 233.89 320.4 231.48V231.428H320.294V179.825C320.333 174.068 321.854 168.889 324.858 164.306C327.881 159.608 331.924 155.91 337.046 153.254C342.168 150.539 347.598 149.191 353.355 149.191C357.745 149.191 361.923 149.961 365.87 151.501C369.779 152.926 373.341 155.083 376.537 157.99C379.695 160.879 382.141 164.19 383.873 167.926C385.606 171.642 386.473 175.743 386.473 180.21C386.473 184.582 385.587 188.663 383.816 192.456C382.082 196.211 379.656 199.504 376.537 202.334C373.418 205.184 369.856 207.34 365.87 208.822C361.846 210.286 357.668 211.018 353.355 211.018C349.1 211.018 344.94 210.286 340.877 208.822L339.588 208.246L338.297 207.687V222.066H338.35H338.35ZM422.345 211.133C416.588 211.133 411.158 209.766 406.036 207.071C400.914 204.356 396.871 200.659 393.848 195.961C390.805 191.205 389.284 185.91 389.284 180.037C389.284 175.648 390.17 171.546 391.942 167.753C393.713 163.94 396.139 160.667 399.22 157.875C402.34 155.063 405.882 152.888 409.868 151.386C413.93 149.884 418.09 149.133 422.345 149.133C426.62 149.133 430.798 149.884 434.861 151.386C438.808 152.811 442.37 154.967 445.528 157.817C448.647 160.686 451.073 163.979 452.806 167.753C454.578 171.546 455.464 175.648 455.464 180.037C455.464 184.523 454.597 188.625 452.864 192.341C451.131 196.096 448.686 199.426 445.528 202.334C442.332 205.184 438.77 207.34 434.861 208.822C430.914 210.363 426.735 211.133 422.345 211.133H422.345ZM407.288 180.037C407.288 184.061 408.79 187.527 411.793 190.415C414.759 193.323 418.282 194.767 422.345 194.767C426.447 194.767 429.97 193.323 432.954 190.415C435.958 187.527 437.46 184.061 437.46 180.037C437.46 177.418 436.767 174.992 435.381 172.758C433.974 170.544 432.127 168.773 429.796 167.464C427.486 166.154 425.002 165.499 422.345 165.499C419.745 165.499 417.281 166.154 414.951 167.464C412.621 168.773 410.754 170.544 409.367 172.758C407.981 174.992 407.287 177.418 407.287 180.037H407.288ZM338.298 180.21C338.298 176.186 339.8 172.72 342.804 169.832C345.769 166.943 349.293 165.499 353.355 165.499C357.457 165.499 360.981 166.943 363.965 169.832C366.968 172.758 368.47 176.224 368.47 180.21C368.47 182.848 367.777 185.255 366.391 187.431C364.985 189.645 363.137 191.416 360.807 192.745C358.458 194.054 355.994 194.709 353.355 194.709C350.718 194.709 348.253 194.054 345.961 192.745C343.632 191.417 341.764 189.645 340.378 187.431C338.991 185.293 338.298 182.886 338.298 180.21ZM284.365 211.133C278.608 211.133 273.178 209.766 268.057 207.071C262.935 204.356 258.892 200.659 255.868 195.961C252.826 191.205 251.305 185.91 251.305 180.037C251.305 175.648 252.191 171.546 253.963 167.753C255.734 163.94 258.16 160.667 261.241 157.875C264.36 155.063 267.903 152.888 271.888 151.386C275.951 149.884 280.111 149.133 284.366 149.133C288.64 149.133 292.819 149.884 296.882 151.386C300.828 152.811 304.391 154.967 307.549 157.817C310.668 160.686 313.094 163.979 314.827 167.753C316.598 171.546 317.485 175.648 317.485 180.037C317.485 184.523 316.618 188.625 314.885 192.341C313.152 196.096 310.706 199.426 307.549 202.334C304.353 205.184 300.79 207.34 296.882 208.822C292.934 210.363 288.756 211.133 284.366 211.133H284.365ZM269.309 180.037C269.309 184.061 270.811 187.527 273.814 190.415C276.779 193.323 280.303 194.767 284.366 194.767C288.467 194.767 291.991 193.323 294.975 190.415C297.979 187.527 299.481 184.061 299.481 180.037C299.481 177.418 298.788 174.992 297.401 172.758C295.995 170.544 294.147 168.773 291.817 167.464C289.507 166.154 287.022 165.499 284.366 165.499C281.766 165.499 279.302 166.154 276.972 167.464C274.642 168.773 272.774 170.544 271.388 172.758C270.002 174.992 269.309 177.418 269.309 180.037Z" fill="white"/>
<path fill-rule="evenodd" clip-rule="evenodd" d="M13.948 46.3745C35.4587 10.9011 76.2633 -5.73261 114.77 1.76918C79.4779 -2.45439 43.323 13.7419 23.7083 46.0874C-3.01651 90.1594 11.0833 147.521 55.2001 174.21C87.5796 193.798 127.13 191.418 156.449 171.341C125.801 195.811 81.927 199.955 46.4171 178.474C0.930393 150.956 -13.6062 91.8132 13.948 46.3742V46.3745Z" fill="white"/>
<path fill-rule="evenodd" clip-rule="evenodd" d="M18.2123 109.122C25.0669 146.179 54.3887 173.424 89.5322 179.415C58.1766 171.669 32.6658 146.291 26.4153 112.5C17.8992 66.4591 48.3623 22.2344 94.4558 13.7218C128.286 7.47344 161.133 22.2001 179.584 48.6813C161.42 18.0395 125.465 0.424591 88.3646 7.27714C40.8402 16.0544 9.43169 61.6517 18.212 109.122L18.2123 109.122Z" fill="white"/>
</g>
<defs>
<clipPath id="clip0_3161_5659">
<rect width="455.463" height="240.364" fill="white"/>
</clipPath>
</defs>
</svg>
